{
	"asset":{
		"generator":"Khronos glTF Blender I/O v4.4.55",
		"version":"2.0"
	},
	"scene":0,
	"scenes":[
		{
			"name":"Scene",
			"nodes":[
				0,
				1,
				2,
				3,
				4,
				5,
				6
			]
		}
	],
	"nodes":[
		{
			"mesh":0,
			"name":"Body"
		},
		{
			"mesh":1,
			"name":"Hat"
		},
		{
			"mesh":2,
			"name":"Eye"
		},
		{
			"mesh":3,
			"name":"Tie"
		},
		{
			"mesh":4,
			"name":"Arms"
		},
		{
			"mesh":5,
			"name":"Plane"
		},
		{
			"mesh":6,
			"name":"Cube"
		}
	],
	"materials":[
		{
			"doubleSided":true,
			"emissiveFactor":[
				1,
				1,
				1
			],
			"emissiveTexture":{
				"index":0
			},
			"name":"Colors",
			"pbrMetallicRoughness":{
				"baseColorFactor":[
					0,
					0,
					0,
					1
				]
			}
		}
	],
	"meshes":[
		{
			"name":"Cube.003",
			"primitives":[
				{
					"attributes":{
						"POSITION":0,
						"NORMAL":1,
						"TEXCOORD_0":2
					},
					"indices":3,
					"material":0
				}
			]
		},
		{
			"name":"Cylinder.002",
			"primitives":[
				{
					"attributes":{
						"POSITION":4,
						"NORMAL":5,
						"TEXCOORD_0":6
					},
					"indices":7,
					"material":0
				}
			]
		},
		{
			"name":"Cylinder.003",
			"primitives":[
				{
					"attributes":{
						"POSITION":8,
						"NORMAL":9,
						"TEXCOORD_0":10
					},
					"indices":11,
					"material":0
				}
			]
		},
		{
			"name":"Plane.003",
			"primitives":[
				{
					"attributes":{
						"POSITION":12,
						"NORMAL":13,
						"TEXCOORD_0":14
					},
					"indices":15,
					"material":0
				}
			]
		},
		{
			"name":"Cylinder.004",
			"primitives":[
				{
					"attributes":{
						"POSITION":16,
						"NORMAL":17,
						"TEXCOORD_0":18
					},
					"indices":19,
					"material":0
				}
			]
		},
		{
			"name":"Plane.004",
			"primitives":[
				{
					"attributes":{
						"POSITION":20,
						"NORMAL":21,
						"TEXCOORD_0":22
					},
					"indices":23,
					"material":0
				}
			]
		},
		{
			"name":"Cube.004",
			"primitives":[
				{
					"attributes":{
						"POSITION":24,
						"NORMAL":25,
						"TEXCOORD_0":26
					},
					"indices":27,
					"material":0
				}
			]
		}
	],
	"textures":[
		{
			"sampler":0,
			"source":0
		}
	],
	"images":[
		{
			"mimeType":"image/png",
			"name":"colors",
			"uri":"colors.png"
		}
	],
	"accessors":[
		{
			"bufferView":0,
			"componentType":5126,
			"count":184,
			"max":[
				0.5473233461380005,
				1.5514261722564697,
				0.108446404337883
			],
			"min":[
				-0.5473233461380005,
				0.6340616345405579,
				-0.034554459154605865
			],
			"type":"VEC3"
		},
		{
			"bufferView":1,
			"componentType":5126,
			"count":184,
			"type":"VEC3"
		},
		{
			"bufferView":2,
			"componentType":5126,
			"count":184,
			"type":"VEC2"
		},
		{
			"bufferView":3,
			"componentType":5123,
			"count":396,
			"type":"SCALAR"
		},
		{
			"bufferView":4,
			"componentType":5126,
			"count":192,
			"max":[
				0.17591407895088196,
				2.0222346782684326,
				0.27464941143989563
			],
			"min":[
				-0.17591407895088196,
				1.5684502124786377,
				-0.07894672453403473
			],
			"type":"VEC3"
		},
		{
			"bufferView":5,
			"componentType":5126,
			"count":192,
			"type":"VEC3"
		},
		{
			"bufferView":6,
			"componentType":5126,
			"count":192,
			"type":"VEC2"
		},
		{
			"bufferView":7,
			"componentType":5123,
			"count":372,
			"type":"SCALAR"
		},
		{
			"bufferView":8,
			"componentType":5126,
			"count":132,
			"max":[
				0.21125565469264984,
				1.2507076263427734,
				0.09780038893222809
			],
			"min":[
				-0.21125565469264984,
				0.9545120000839233,
				0.05433680862188339
			],
			"type":"VEC3"
		},
		{
			"bufferView":9,
			"componentType":5126,
			"count":132,
			"type":"VEC3"
		},
		{
			"bufferView":10,
			"componentType":5126,
			"count":132,
			"type":"VEC2"
		},
		{
			"bufferView":11,
			"componentType":5123,
			"count":294,
			"type":"SCALAR"
		},
		{
			"bufferView":12,
			"componentType":5126,
			"count":34,
			"max":[
				0.1093679741024971,
				0.8610544204711914,
				0.07008425891399384
			],
			"min":[
				-0.1093679741024971,
				0.7336001396179199,
				0.04901869222521782
			],
			"type":"VEC3"
		},
		{
			"bufferView":13,
			"componentType":5126,
			"count":34,
			"type":"VEC3"
		},
		{
			"bufferView":14,
			"componentType":5126,
			"count":34,
			"type":"VEC2"
		},
		{
			"bufferView":15,
			"componentType":5123,
			"count":48,
			"type":"SCALAR"
		},
		{
			"bufferView":16,
			"componentType":5126,
			"count":1136,
			"max":[
				0.283041387796402,
				0.6979843974113464,
				0.0351184643805027
			],
			"min":[
				-0.283041387796402,
				0.16199293732643127,
				-0.06911246478557587
			],
			"type":"VEC3"
		},
		{
			"bufferView":17,
			"componentType":5126,
			"count":1136,
			"type":"VEC3"
		},
		{
			"bufferView":18,
			"componentType":5126,
			"count":1136,
			"type":"VEC2"
		},
		{
			"bufferView":19,
			"componentType":5123,
			"count":2136,
			"type":"SCALAR"
		},
		{
			"bufferView":20,
			"componentType":5126,
			"count":1440,
			"max":[
				0.17142917215824127,
				0.6688380837440491,
				0.03873749449849129
			],
			"min":[
				-0.17401449382305145,
				0.2886570394039154,
				-0.2758537232875824
			],
			"type":"VEC3"
		},
		{
			"bufferView":21,
			"componentType":5126,
			"count":1440,
			"type":"VEC3"
		},
		{
			"bufferView":22,
			"componentType":5126,
			"count":1440,
			"type":"VEC2"
		},
		{
			"bufferView":23,
			"componentType":5123,
			"count":2208,
			"type":"SCALAR"
		},
		{
			"bufferView":24,
			"componentType":5126,
			"count":186,
			"max":[
				0.10399044305086136,
				1.316190242767334,
				0.11587762832641602
			],
			"min":[
				-0.10399044305086136,
				0.8912553191184998,
				0.0511619932949543
			],
			"type":"VEC3"
		},
		{
			"bufferView":25,
			"componentType":5126,
			"count":186,
			"type":"VEC3"
		},
		{
			"bufferView":26,
			"componentType":5126,
			"count":186,
			"type":"VEC2"
		},
		{
			"bufferView":27,
			"componentType":5123,
			"count":282,
			"type":"SCALAR"
		}
	],
	"bufferViews":[
		{
			"buffer":0,
			"byteLength":2208,
			"byteOffset":0,
			"target":34962
		},
		{
			"buffer":0,
			"byteLength":2208,
			"byteOffset":2208,
			"target":34962
		},
		{
			"buffer":0,
			"byteLength":1472,
			"byteOffset":4416,
			"target":34962
		},
		{
			"buffer":0,
			"byteLength":792,
			"byteOffset":5888,
			"target":34963
		},
		{
			"buffer":0,
			"byteLength":2304,
			"byteOffset":6680,
			"target":34962
		},
		{
			"buffer":0,
			"byteLength":2304,
			"byteOffset":8984,
			"target":34962
		},
		{
			"buffer":0,
			"byteLength":1536,
			"byteOffset":11288,
			"target":34962
		},
		{
			"buffer":0,
			"byteLength":744,
			"byteOffset":12824,
			"target":34963
		},
		{
			"buffer":0,
			"byteLength":1584,
			"byteOffset":13568,
			"target":34962
		},
		{
			"buffer":0,
			"byteLength":1584,
			"byteOffset":15152,
			"target":34962
		},
		{
			"buffer":0,
			"byteLength":1056,
			"byteOffset":16736,
			"target":34962
		},
		{
			"buffer":0,
			"byteLength":588,
			"byteOffset":17792,
			"target":34963
		},
		{
			"buffer":0,
			"byteLength":408,
			"byteOffset":18380,
			"target":34962
		},
		{
			"buffer":0,
			"byteLength":408,
			"byteOffset":18788,
			"target":34962
		},
		{
			"buffer":0,
			"byteLength":272,
			"byteOffset":19196,
			"target":34962
		},
		{
			"buffer":0,
			"byteLength":96,
			"byteOffset":19468,
			"target":34963
		},
		{
			"buffer":0,
			"byteLength":13632,
			"byteOffset":19564,
			"target":34962
		},
		{
			"buffer":0,
			"byteLength":13632,
			"byteOffset":33196,
			"target":34962
		},
		{
			"buffer":0,
			"byteLength":9088,
			"byteOffset":46828,
			"target":34962
		},
		{
			"buffer":0,
			"byteLength":4272,
			"byteOffset":55916,
			"target":34963
		},
		{
			"buffer":0,
			"byteLength":17280,
			"byteOffset":60188,
			"target":34962
		},
		{
			"buffer":0,
			"byteLength":17280,
			"byteOffset":77468,
			"target":34962
		},
		{
			"buffer":0,
			"byteLength":11520,
			"byteOffset":94748,
			"target":34962
		},
		{
			"buffer":0,
			"byteLength":4416,
			"byteOffset":106268,
			"target":34963
		},
		{
			"buffer":0,
			"byteLength":2232,
			"byteOffset":110684,
			"target":34962
		},
		{
			"buffer":0,
			"byteLength":2232,
			"byteOffset":112916,
			"target":34962
		},
		{
			"buffer":0,
			"byteLength":1488,
			"byteOffset":115148,
			"target":34962
		},
		{
			"buffer":0,
			"byteLength":564,
			"byteOffset":116636,
			"target":34963
		}
	],
	"samplers":[
		{
			"magFilter":9729,
			"minFilter":9987
		}
	],
	"buffers":[
		{
			"byteLength":117200,
			"uri":"cipher.bin"
		}
	]
}
